<?xml version="1.0" encoding="UTF-8"?> <svg xmlns="http://www.w3.org/2000/svg" xmlns:xlink="http://www.w3.org/1999/xlink" xmlns:xodm="http://www.corel.com/coreldraw/odm/2003" xml:space="preserve" width="100%" height="100%" version="1.1" style="shape-rendering:geometricPrecision; text-rendering:geometricPrecision; image-rendering:optimizeQuality; fill-rule:evenodd; clip-rule:evenodd" viewBox="0 0 26596.85 10037.35"> <defs> <style type="text/css"> .fil0 {fill:#4B006E;fill-rule:nonzero} .fil2 {fill:#A57D02;fill-rule:nonzero} .fil1 {fill:url(#id0);fill-rule:nonzero} </style> <linearGradient id="id0" gradientUnits="userSpaceOnUse" x1="-89.8" y1="5646.74" x2="5157.53" y2="2697.74"> <stop offset="0" style="stop-opacity:1; stop-color:#A57D02"></stop> <stop offset="0.490196" style="stop-opacity:1; stop-color:#D1BD7E"></stop> <stop offset="1" style="stop-opacity:1; stop-color:#A57D02"></stop> </linearGradient> </defs> <g id="Слой_x0020_1"> <metadata id="CorelCorpID_0Corel-Layer"></metadata> <path class="fil0" d="M6294.78 7799.99l274.32 0 0 -706.04c35.97,-6.74 69.7,-11.24 103.43,-11.24 209.11,0 362.01,134.91 618.35,134.91 87.69,0 184.38,-15.74 301.3,-56.21l0 638.58 276.56 0 0 -1573.97 -276.56 0 0 697.04c-119.17,49.47 -211.36,65.21 -290.06,65.21 -211.36,0 -321.54,-125.92 -544.15,-125.92 -53.96,0 -116.92,6.75 -188.87,26.99l0 -663.32 -274.32 0 0 1573.97zm2192.31 -236.1l0 -422.72c62.96,31.48 123.67,42.72 184.38,42.72 191.12,0 366.51,-128.16 568.88,-128.16 94.43,0 195.62,29.23 305.8,110.17l-2.25 -233.84c-105.68,-89.94 -202.37,-121.42 -296.81,-121.42 -197.87,0 -382.25,132.66 -582.37,132.66 -58.46,0 -116.92,-11.24 -177.63,-38.22l0 -442.97 1115.27 0 0 -236.09 -1389.59 0 0 1573.97 1403.08 0 0 -236.1 -1128.76 0zm2300.25 -1360.36l-245.09 0c0,535.15 -703.79,897.17 -703.79,1598.71l283.31 -2.25c0,-101.18 15.74,-193.37 40.47,-278.82 78.7,-33.73 143.91,-44.97 202.37,-44.97 177.64,0 290.06,114.68 505.92,114.68 83.2,0 177.64,-15.74 299.06,-60.71l139.41 269.82 292.3 0 -813.96 -1596.46zm281.06 1128.77c-71.95,22.48 -132.66,31.48 -182.13,31.48 -177.63,0 -249.59,-110.18 -436.21,-110.18 -53.97,0 -114.68,8.99 -191.13,31.48 132.66,-245.09 326.04,-445.21 438.46,-670.07l371.01 717.29zm773.49 467.69c114.67,-62.96 211.36,-85.44 299.05,-85.44 218.11,0 386.75,134.91 649.83,134.91 121.42,0 260.83,-26.98 436.21,-110.18l0 -260.83c-182.13,94.44 -314.79,125.92 -424.97,125.92 -220.36,0 -344.03,-128.17 -575.62,-128.17 -33.73,0 -69.71,2.25 -110.18,9l0 -1259.18 -274.32 0 0 1573.97zm1270.42 -1272.67c119.17,-62.96 231.6,-85.44 344.02,-85.44 121.43,0 242.85,26.98 366.52,58.46l0 1299.65 276.56 0 0 -1241.19c76.45,13.49 157.4,20.24 240.6,20.24 150.65,0 314.79,-26.98 499.17,-107.93l0 -260.83c-188.88,94.44 -353.02,125.92 -501.42,125.92 -296.81,0 -541.9,-125.92 -845.45,-125.92 -114.67,0 -238.34,17.99 -377.75,69.7l-2.25 247.34zm1965.22 1272.67l274.32 0 0 -706.04c35.97,-6.74 69.7,-11.24 103.43,-11.24 209.11,0 362,134.91 618.34,134.91 87.69,0 184.38,-15.74 301.3,-56.21l0 638.58 276.57 0 0 -1573.97 -276.57 0 0 697.04c-119.17,49.47 -211.36,65.21 -290.06,65.21 -211.36,0 -321.53,-125.92 -544.14,-125.92 -53.96,0 -116.92,6.75 -188.87,26.99l0 -663.32 -274.32 0 0 1573.97zm2383.43 -1272.67c119.17,-62.96 231.6,-85.44 344.02,-85.44 121.43,0 242.85,26.98 366.52,58.46l0 1299.65 276.56 0 0 -1241.19c76.45,13.49 157.4,20.24 240.6,20.24 150.65,0 314.79,-26.98 499.17,-107.93l0 -260.83c-188.88,94.44 -353.02,125.92 -501.42,125.92 -296.81,0 -541.9,-125.92 -845.45,-125.92 -114.67,0 -238.34,17.99 -377.75,69.7l-2.25 247.34zm1965.22 1272.67l274.32 0 0 -652.07c33.73,-6.75 67.45,-9 98.93,-9 128.16,0 233.84,47.22 359.76,74.2 56.21,272.08 130.41,586.87 894.91,586.87l-2.25 -240.59c-469.94,-9 -591.36,-139.41 -643.08,-332.79 283.32,-38.22 424.98,-267.57 424.98,-496.92 0,-251.84 -170.89,-503.67 -510.42,-503.67l-897.15 0 0 1573.97zm274.32 -1335.63l600.34 0c173.14,0 260.83,132.67 260.83,265.33 0,132.66 -87.69,265.33 -260.83,265.33 -170.88,0 -251.83,-94.44 -431.7,-94.44 -47.22,0 -103.44,6.74 -168.64,24.73l0 -460.95zm2464.38 -260.83l-245.09 0c0,535.15 -703.79,897.17 -703.79,1598.71l283.31 -2.25c0,-101.18 15.74,-193.37 40.47,-278.82 78.7,-33.73 143.91,-44.97 202.37,-44.97 177.64,0 290.06,114.68 505.92,114.68 83.2,0 177.64,-15.74 299.06,-60.71l139.41 269.82 292.3 0 -813.96 -1596.46zm281.06 1128.77c-71.95,22.48 -132.66,31.48 -182.13,31.48 -177.63,0 -249.59,-110.18 -436.21,-110.18 -53.97,0 -114.68,8.99 -191.13,31.48 132.66,-245.09 326.04,-445.21 438.46,-670.07l371.01 717.29zm773.5 -1106.28l0 1573.97 20.23 -11.24c119.18,-60.71 218.11,-83.2 305.8,-83.2 191.13,0 337.28,94.44 546.39,94.44 535.15,-11.24 802.72,-395.74 802.72,-786.99 0,-391.24 -267.57,-786.98 -802.72,-786.98l-872.42 0zm274.32 236.09l586.85 0c350.77,0 526.16,274.33 526.16,548.65 0,276.57 -175.39,550.89 -526.16,550.89 -170.87,0 -267.56,-92.19 -456.44,-92.19 -38.22,0 -80.94,4.49 -130.41,13.49l0 -1020.84zm1974.2 1101.78l0 -422.72c62.96,31.48 123.67,42.72 184.38,42.72 191.12,0 366.51,-128.16 568.88,-128.16 94.43,0 195.62,29.23 305.8,110.17l-2.25 -233.84c-105.68,-89.94 -202.37,-121.42 -296.81,-121.42 -197.87,0 -382.25,132.66 -582.37,132.66 -58.46,0 -116.92,-11.24 -177.63,-38.22l0 -442.97 1115.27 0 0 -236.09 -1389.59 0 0 1573.97 1403.08 0 0 -236.1 -1128.76 0z"></path> <path class="fil1" d="M4072.03 4171.77c50.01,-25.15 99.08,-52.29 146.72,-82.19 27.33,-16.98 54.19,-34.82 80.66,-53.43 0.19,-0.09 0.38,-0.19 0.57,-0.38 20.5,-14.99 41.95,-31.41 64.35,-49.34 446.98,-358.26 703.41,-903.09 703.41,-1476.01l0 -1967.3 -379.61 0 0 0.66 -1259.15 0 54.66 94.9 6.08 10.54 158.2 274.17 467.29 0c311.94,0 564.66,252.81 564.66,564.66l0 1042.97c0,11.67 0.19,23.25 0.38,34.82 4.27,227.2 -43.56,453.07 -150.13,653.69 -22.68,42.61 -47.55,84.17 -74.59,124.51 -54.57,81.42 -118.06,158.1 -189.9,228.33 -74.21,72.79 -154.78,136.37 -240.48,190.56 -7.59,4.75 -15.18,9.49 -22.78,14.05 -186.57,113.12 -396.49,181.54 -616.57,200.33 -0.86,0.1 -1.71,0.19 -2.66,0.29 -14.9,1.23 -29.89,2.28 -44.98,3.04 -0.57,0 -1.14,0.09 -1.71,0.09 -15.66,0.85 -31.32,1.42 -47.07,1.71 -9.78,-0.19 -19.55,-0.29 -29.32,-0.29 -9.87,0 -19.74,0.1 -29.61,0.29 -88.07,-1.9 -174.43,-12.05 -257.95,-29.61 -5.69,-1.23 -11.48,-2.47 -17.17,-3.8 -150.23,-33.59 -291.83,-91.1 -420.7,-168.64 -422.79,-254.05 -708.16,-721.06 -708.16,-1248.8 0,-448.03 113.22,-893.03 327.51,-1286.68l148.04 -271.98 231.85 -401.82 14.33 24.87 217.51 376.95 148.05 271.98c214.29,393.65 327.5,838.55 327.5,1286.68 0,332.81 -113.59,641.44 -303.39,887.71 -312.42,-870.92 -403.24,-2242.15 -403.24,-2242.15 -0.48,0.95 -0.86,2 -1.24,3.04 -0.19,-1.99 -0.28,-3.13 -0.28,-3.13 -290.78,690.41 173.76,2480.72 173.76,2480.72l0.1 0c113.79,61.78 236.68,108.47 365.94,137.23 5.69,1.42 11.48,2.56 17.18,3.89 6.83,1.33 13.66,2.75 20.49,3.98l0.1 0c0.1,-0.09 0.19,-0.18 0.28,-0.18 0.38,0 0.76,0.09 1.24,0.18 14.04,-14.42 27.71,-29.22 41.09,-44.12 303.02,-337.85 469.1,-770.98 469.1,-1227.17 0,-511.43 -129.26,-1019.15 -373.72,-1468.13l-151.47 -278.25 -139.31 -241.43 -188.95 -327.41 -64.06 -111.03c-26.29,-52.77 -76.59,-93.39 -140.36,-103.07 -3.7,-0.57 -7.4,-0.95 -11.2,-1.32l-8.63 -0.57 -0.48 0 -1.04 -0.1c-1.14,-0.09 -2.37,-0.09 -3.61,-0.09 -1.42,-0.1 -2.85,-0.19 -4.27,-0.19l-1.33 0c-0.09,0 -0.09,0 -0.09,0 0,0 0,0 -0.1,0l-1.32 0c-3.14,0 -6.27,0.09 -9.4,0.28 -2.94,0.1 -5.79,0.29 -8.64,0.67 -3.79,0.28 -7.49,0.85 -11.2,1.32 -63.77,9.68 -114.07,50.21 -140.36,103.07l-0.66 1.23 -252.34 437.21 -139.32 241.43 -151.46 278.25c-244.47,448.98 -373.72,956.7 -373.72,1468.13 0,456.19 166.08,889.32 469.1,1227.07 15.47,17.37 31.41,34.35 47.64,51.15 47.83,49.64 98.03,95.95 150.32,139.22 33.79,28 68.52,54.57 104.01,79.82 -9.2,-2.19 -18.5,-3.99 -27.8,-5.98 -1.05,-0.29 -2.09,-0.48 -3.14,-0.76 -17.46,-3.7 -34.92,-7.12 -52.38,-10.35 -4.08,-0.76 -8.07,-1.42 -12.15,-2.18 -7.78,-1.33 -15.47,-2.94 -23.25,-4.18 -66.24,-10.72 -133.24,-17.65 -201,-20.97 -4.74,-0.19 -9.58,-0.57 -14.42,-0.76 -1.05,-0.95 -2,-1.8 -2.95,-2.56l-1.33 0c0,0 -0.09,-0.09 -0.18,-0.09 -13.48,0.66 -27.15,1.13 -40.81,1.42 -9.78,-0.19 -19.65,-0.29 -29.52,-0.29 -9.87,0 -19.74,0.1 -29.7,0.29 -264.11,-5.32 -516.36,-81.24 -735.2,-219.41 -85.7,-54.19 -166.27,-117.87 -240.48,-190.66 -188.38,-184.49 -319.25,-411.21 -384.07,-659.28 -26.57,-101.83 -35.4,-207.27 -31.5,-312.42 0.85,-23.25 1.32,-46.4 1.32,-69.65l0 -1042.97c0,-311.85 252.72,-564.66 564.67,-564.66l467.29 0 164.28 -284.71 54.66 -94.8 0.09 -0.1 -1250.99 0 0 -0.09 -387.86 0 0 2094.47c0,380.08 131.91,748.96 375.81,1040.4 1.23,1.52 2.56,3.04 3.8,4.56l0 -15.19c49.25,63.02 102.87,123.09 160.85,179.47 136.66,133.05 290.4,241.99 456.1,324.94 -50.3,25.14 -99.64,52.57 -147.57,82.56 -109.99,68.61 -213.34,149.66 -308.53,242.19 -57.98,56.47 -111.6,116.54 -160.85,179.65l0 -15.47c-1.24,1.52 -2.57,3.04 -3.8,4.46 -243.9,291.63 -375.81,660.7 -375.81,1040.88l0 2094.76 379.61 0 0 -0.67 1259.15 0 -54.66 -94.9 -6.08 -10.53 -158.2 -274.17 -467.29 0c-311.95,0 -564.67,-252.82 -564.67,-564.67l0 -1042.96c0,-11.68 -0.19,-23.25 -0.38,-34.83 -4.27,-227.2 43.56,-453.06 150.14,-653.68 22.68,-42.61 47.54,-84.18 74.59,-124.51 54.57,-81.43 118.06,-158.11 189.9,-228.34 74.21,-72.79 154.78,-136.37 240.48,-190.56 7.59,-4.74 15.18,-9.49 22.78,-14.04 186.57,-113.13 396.49,-181.55 616.57,-200.34 0.85,-0.09 1.71,-0.19 2.66,-0.29 14.9,-1.23 29.89,-2.27 44.98,-3.03 0.57,0 1.14,-0.1 1.71,-0.1 15.66,-0.85 31.32,-1.42 47.07,-1.71 9.77,0.2 19.55,0.29 29.32,0.29 9.87,0 19.74,-0.09 29.61,-0.29 88.07,1.9 174.43,12.06 257.94,29.61 5.7,1.24 11.49,2.47 17.18,3.8 150.23,33.59 291.82,91.1 420.7,168.64 422.78,254.05 708.15,721.06 708.15,1248.81 0,448.03 -113.21,893.02 -327.5,1286.67l-148.05 271.99 -231.84 401.81 -14.33 -24.86 -217.52 -376.95 -148.04 -271.99c-214.29,-393.65 -327.51,-838.55 -327.51,-1286.67 0,-332.82 113.6,-641.44 303.4,-887.71 312.42,870.91 403.24,2242.14 403.24,2242.14 0.47,-0.95 0.85,-1.99 1.23,-3.04 0.19,2 0.29,3.13 0.29,3.13 290.77,-690.4 -173.77,-2480.72 -173.77,-2480.72l-0.09 0c-113.79,-61.78 -236.68,-108.47 -365.94,-137.22 -5.69,-1.43 -11.48,-2.57 -17.18,-3.9 -6.83,-1.33 -13.66,-2.75 -20.5,-3.98l-0.09 0c-0.1,0.09 -0.19,0.19 -0.29,0.19 -0.38,0 -0.76,-0.1 -1.23,-0.19 -14.05,14.42 -27.71,29.23 -41.09,44.13 -303.02,337.85 -469.1,770.98 -469.1,1227.17 0,511.42 129.25,1019.14 373.72,1468.12l151.46 278.25 139.32 241.43 188.95 327.41 64.05 111.04c26.29,52.76 76.59,93.38 140.36,103.06 3.71,0.57 7.41,0.95 11.2,1.33l8.64 0.57 0.47 0 1.05 0.09c1.14,0.1 2.37,0.1 3.6,0.1 1.43,0.09 2.85,0.19 4.28,0.19l1.32 0c0.1,0 0.1,0 0.1,0 0,0 0,0 0.09,0l1.33 0c3.13,0 6.27,-0.1 9.4,-0.29 2.94,-0.09 5.79,-0.28 8.63,-0.66 3.8,-0.29 7.5,-0.86 11.2,-1.33 63.77,-9.68 114.07,-50.2 140.36,-103.06l0.67 -1.24 252.34 -437.21 139.31 -241.43 151.47 -278.25c244.46,-448.98 373.72,-956.7 373.72,-1468.12 0,-456.19 -166.08,-889.32 -469.1,-1227.08 -15.47,-17.37 -31.41,-34.35 -47.64,-51.15 -47.83,-49.63 -98.03,-95.95 -150.32,-139.22 -33.79,-28 -68.52,-54.57 -104.02,-79.81 9.21,2.18 18.51,3.98 27.81,5.98 1.04,0.28 2.09,0.47 3.13,0.76 17.46,3.7 34.93,7.11 52.39,10.34 4.08,0.76 8.06,1.42 12.15,2.18 7.78,1.33 15.46,2.94 23.25,4.18 66.24,10.72 133.24,17.65 201,20.97 4.74,0.19 9.58,0.57 14.42,0.76 1.04,0.95 1.99,1.8 2.94,2.56l1.33 0c0,0 0.1,0.1 0.19,0.1 13.48,-0.67 27.14,-1.14 40.81,-1.43 9.77,0.2 19.64,0.29 29.51,0.29 9.87,0 19.74,-0.09 29.71,-0.29 264.11,5.32 516.36,81.24 735.2,219.42 85.7,54.19 166.27,117.86 240.48,190.65 188.38,184.49 319.25,411.21 384.07,659.28 26.57,101.83 35.39,207.27 31.5,312.42 -0.85,23.25 -1.33,46.41 -1.33,69.66l0 1042.96c0,311.85 -252.72,564.67 -564.66,564.67l-467.29 0 -164.28 284.7 -54.66 94.81 -0.1 0.09 1250.99 0 0 0.1 387.87 0 0 -1966.46c0,-570.54 -254.15,-1113.28 -697.81,-1471.92 -22.31,-18.03 -43.75,-34.54 -64.25,-49.63 -0.76,-0.47 -1.43,-0.95 -2.09,-1.52 -73.55,-51.91 -150.42,-97.94 -230.14,-137.99 -0.09,-0.09 -0.19,-0.09 -0.28,-0.09 -0.38,-0.19 -0.66,-0.28 -0.86,-0.38 -0.37,-0.28 -0.75,-0.47 -1.13,-0.66 0,0 0.09,0 0.19,-0.1 0.09,0 0.37,-0.09 0.66,-0.28z"></path> <g id="_2291668640320"> <path class="fil0" d="M13859.21 4814.25c0,-416.28 345.08,-881.95 719.54,-881.95 -374.46,0 -719.54,-472.72 -719.54,-881.94 0,409.22 -345.08,881.94 -719.53,881.94 374.45,0 719.53,465.67 719.53,881.95z"></path> <path class="fil0" d="M8256.21 1374.84c684.39,0 1270,486.83 1876.78,486.83 204.61,0 416.28,-56.44 635,-211.66l-7.05 -910.17c-225.78,254 -451.56,338.67 -670.28,338.67 -536.22,0 -1107.72,-493.89 -1897.95,-493.89 -959.55,0 -1897.94,444.5 -1897.94,1502.83 0,1759.43 2877.93,1263.1 3525.94,1893.33l-16.62 0c88.04,86.98 138.4,193.92 138.4,329.18 0,493.89 -409.22,705.56 -1037.16,705.56 -684.39,0 -1270,-486.83 -1876.78,-486.83 -204.61,0 -416.28,56.44 -635,211.66l7.05 910.17c225.78,-254 451.56,-338.67 670.28,-338.67 536.22,0 1107.72,493.89 1897.95,493.89 959.55,0 1897.94,-444.5 1897.94,-1502.83 0,-117.15 -13.16,-223.98 -37.18,-322.13l0.57 0c-379.12,-1540.95 -3611.11,-811.13 -3611.11,-1900.38 0,-493.89 409.22,-705.56 1037.16,-705.56z"></path> <path class="fil0" d="M23938.87 641.07l-800.28 0c0,1679.23 -2298.1,2815.17 -2298.1,5016.51l925.11 -7.06c0,-1643.95 1284.88,-2575.28 1879.59,-3718.28l1997.06 3718.28 954.49 0 -2657.87 -5009.45z"></path> <path class="fil0" d="M20688.09 641.08c0,1397.46 -2789.11,2515.42 -2789.11,5016.5l939.65 -7.17c0,-2501.08 2923.34,-3418.38 2766.73,-5009.33l-917.27 0zm-3694.32 0c0,794.22 900.83,1498.24 1678.56,2417.12 -171.72,212.33 -334.97,436.4 -479.08,675.72 -851.49,-1209.3 -2225.41,-1988.98 -2116.75,-3092.84l917.27 0z"></path> <path class="fil0" d="M14243.77 641.07l-800.29 0c0,1679.23 -2298.09,2815.17 -2298.09,5016.51l925.11 -7.06c0,-1643.95 1284.87,-2575.28 1879.59,-3718.28l1997.06 3718.28 954.49 0 -2657.87 -5009.45z"></path> <path class="fil0" d="M23588.5 4814.25c0,-416.28 345.08,-881.95 719.53,-881.95 -374.45,0 -719.53,-472.72 -719.53,-881.94 0,409.22 -345.08,881.94 -719.53,881.94 374.45,0 719.53,465.67 719.53,881.95z"></path> </g> <path class="fil2" d="M334.54 9829.34c-64.31,0 -121.29,-11.1 -171.35,-32.89 -49.86,-21.99 -89.24,-52.58 -117.94,-91.75 -28.91,-39.38 -43.99,-84.63 -45.25,-136.37l166.96 0c1.25,25.14 9.42,46.71 24.3,64.94 14.87,18.01 34.77,32.26 59.7,42.31 25.14,10.06 52.79,14.88 83.58,14.88 32.68,0 61.59,-5.66 86.72,-17.39 25.35,-11.73 45.04,-27.65 59.29,-47.97 14.24,-20.11 21.57,-43.57 21.57,-70.18 0,-27.86 -7.33,-52.37 -21.78,-73.73 -14.67,-21.16 -35.61,-37.71 -63.06,-49.65 -27.23,-11.73 -60.33,-17.81 -98.66,-17.81l-81.7 0 0 -127.57 81.7 0c31,0 58.65,-5.65 82.74,-16.55 24.09,-11.1 42.95,-26.6 56.56,-46.29 13.41,-19.9 20.11,-43.15 20.11,-69.76 0,-25.76 -5.65,-48.18 -17.38,-67.45 -11.73,-19.27 -28.07,-34.14 -49.44,-44.83 -21.37,-10.68 -46.3,-15.92 -74.78,-15.92 -27.87,0 -53.84,5.03 -77.72,14.87 -23.88,10.06 -43.15,24.3 -57.61,42.74 -14.66,18.43 -22.2,40.43 -23.04,66.19l-158.99 0c0.83,-51.11 15.5,-95.94 43.78,-134.9 28.49,-38.96 66.61,-69.34 114.58,-91.12 47.76,-22 101.39,-32.89 160.67,-32.89 60.75,0 113.54,11.31 158.79,34.14 45.24,22.63 80.23,53.21 104.94,91.75 24.72,38.34 37.08,80.65 37.08,126.95 0,51.53 -15.08,94.68 -45.45,129.46 -30.17,34.77 -70.18,57.81 -119.62,68.7l0 6.92c63.89,9.01 112.7,32.68 147.06,71.22 34.14,38.33 51.11,86.31 51.11,143.49 0,51.12 -14.45,96.99 -43.57,137.21 -28.91,40.22 -68.92,71.85 -119.61,94.89 -50.7,22.84 -108.93,34.36 -174.29,34.36z"></path> <path id="_1" class="fil2" d="M727.94 10037.35l0 -355.9 61.38 0c20.95,-16.55 40.22,-39.38 58.03,-69.13 17.8,-29.75 32.88,-70.59 45.45,-122.55 12.36,-51.95 21.16,-118.77 25.98,-200.68l24.09 -386.48 583.6 0 0 778.84 102.44 0 0 355.27 -158.99 0 0 -219.74 -582.98 0 0 220.37 -159 0zm254.73 -355.9l384.81 0 0 -640.17 -276.09 0 -13.62 247.81c-3.56,62.22 -9.84,117.94 -18.64,167.38 -8.8,49.23 -19.69,92.38 -32.89,129.46 -12.99,37.07 -27.65,68.91 -43.57,95.52z"></path> <path id="_2" class="fil2" d="M2108.82 9829.34c-79.81,0 -151.45,-18.64 -215.13,-55.93 -63.68,-37.29 -113.75,-90.92 -150.41,-160.88 -36.65,-69.97 -54.88,-153.97 -54.88,-252.21 0,-98.46 18.23,-182.88 54.88,-253.05 36.66,-70.18 86.73,-124.01 150.41,-161.09 63.68,-37.29 135.32,-55.93 215.13,-55.93 80.23,0 151.67,18.64 214.72,55.93 63.05,37.08 112.91,90.91 149.78,161.09 36.86,70.17 55.3,154.59 55.3,253.05 0,98.24 -18.44,182.24 -55.3,252.21 -36.87,69.96 -86.73,123.59 -149.78,160.88 -63.05,37.29 -134.49,55.93 -214.72,55.93zm0 -148.52c49.44,0 93.22,-12.36 131.35,-36.87 37.91,-24.51 67.87,-60.75 89.65,-108.3 21.58,-47.76 32.47,-106.2 32.47,-175.33 0,-69.55 -10.89,-128.2 -32.47,-176.17 -21.78,-47.77 -51.74,-84 -89.65,-108.51 -38.13,-24.51 -81.91,-36.87 -131.35,-36.87 -49.43,0 -93.42,12.36 -131.76,36.87 -38.12,24.51 -68.08,60.74 -89.86,108.51 -21.58,47.97 -32.47,106.62 -32.47,176.17 0,69.13 10.89,127.57 32.47,175.33 21.78,47.55 51.74,83.79 89.86,108.3 38.34,24.51 82.33,36.87 131.76,36.87z"></path> <path id="_3" class="fil2" d="M2637.76 9816.98l0 -914.37 343.12 0c70.39,0 129.46,12.98 177.01,39.17 47.76,26.18 83.79,62.21 108.3,108.09 24.72,45.88 36.87,97.83 36.87,155.85 0,58.45 -12.36,110.61 -37.08,156.27 -24.72,45.46 -61.38,81.28 -109.56,107.26 -48.18,25.97 -107.67,38.96 -178.05,38.96l-227.08 0 0 -136.16 204.45 0c41.27,0 75.21,-7.12 101.6,-21.16 26.39,-14.24 45.88,-33.73 58.24,-58.86 12.56,-25.14 18.85,-54.05 18.85,-86.31 0,-32.68 -6.29,-61.37 -18.85,-86.3 -12.36,-24.72 -31.85,-43.99 -58.24,-57.61 -26.39,-13.62 -60.54,-20.53 -102.23,-20.53l-151.66 0 0 775.7 -165.69 0z"></path> <path id="_4" class="fil2" d="M3797.21 9829.34c-79.81,0 -151.45,-18.64 -215.13,-55.93 -63.68,-37.29 -113.75,-90.92 -150.41,-160.88 -36.65,-69.97 -54.88,-153.97 -54.88,-252.21 0,-98.46 18.23,-182.88 54.88,-253.05 36.66,-70.18 86.73,-124.01 150.41,-161.09 63.68,-37.29 135.32,-55.93 215.13,-55.93 80.23,0 151.67,18.64 214.72,55.93 63.05,37.08 112.91,90.91 149.78,161.09 36.86,70.17 55.3,154.59 55.3,253.05 0,98.24 -18.44,182.24 -55.3,252.21 -36.87,69.96 -86.73,123.59 -149.78,160.88 -63.05,37.29 -134.49,55.93 -214.72,55.93zm0 -148.52c49.44,0 93.22,-12.36 131.35,-36.87 37.91,-24.51 67.87,-60.75 89.65,-108.3 21.58,-47.76 32.47,-106.2 32.47,-175.33 0,-69.55 -10.89,-128.2 -32.47,-176.17 -21.78,-47.77 -51.74,-84 -89.65,-108.51 -38.13,-24.51 -81.91,-36.87 -131.35,-36.87 -49.43,0 -93.42,12.36 -131.76,36.87 -38.12,24.51 -68.08,60.74 -89.86,108.51 -21.58,47.97 -32.47,106.62 -32.47,176.17 0,69.13 10.89,127.57 32.47,175.33 21.78,47.55 51.74,83.79 89.86,108.3 38.34,24.51 82.33,36.87 131.76,36.87z"></path> <path id="_5" class="fil2" d="M4326.15 9816.98l0 -914.37 351.08 0c65.99,0 120.66,10.26 164.44,31 43.78,20.53 76.67,48.81 98.25,84.63 21.78,35.82 32.47,76.25 32.47,121.29 0,37.07 -6.92,68.92 -21.16,95.31 -14.04,26.39 -33.1,47.76 -57.4,64.1 -24.09,16.34 -51.11,28.28 -80.86,35.61l0 9.22c32.68,1.26 63.89,10.89 93.43,29.12 29.75,18.22 54.05,43.78 73.11,76.46 19.06,32.67 28.49,72.27 28.49,118.35 0,47.55 -11.31,90.08 -33.94,127.36 -22.83,37.5 -57.19,67.25 -103.06,89.03 -46.09,22 -104.11,32.89 -174.08,32.89l-370.77 0zm165.69 -138.05l178.06 0c60.12,0 103.69,-11.73 130.5,-34.98 26.82,-23.46 40.22,-53 40.22,-89.03 0,-27.44 -6.91,-51.95 -20.32,-73.73 -13.61,-21.58 -32.67,-38.76 -57.39,-51.54 -24.72,-12.56 -53.84,-19.06 -87.56,-19.06l-183.51 0 0 268.34zm0 -387.32l164.65 0c28.07,0 53.63,-5.24 76.67,-15.92 22.83,-10.69 41.06,-25.77 54.26,-45.04 13.4,-19.48 19.9,-42.52 19.9,-69.13 0,-35.19 -12.36,-64.31 -37.29,-87.35 -25.14,-23.25 -61.59,-34.77 -109.98,-34.77l-168.21 0 0 252.21z"></path> <path id="_6" class="fil2" d="M5216.22 9256l231.26 0c70.39,0 130.72,11.31 180.78,34.14 50.07,22.63 88.61,54.68 115.64,95.94 27.02,41.48 40.42,90.08 40.01,146.22 0.41,55.93 -12.99,105.37 -40.01,148.1 -27.03,42.73 -65.57,76.25 -115.64,100.34 -50.06,24.09 -110.39,36.24 -180.78,36.24l-341.86 0 0 -914.37 165.69 0 0 778.21 176.17 0c37.71,0 69.13,-7.12 94.48,-20.95 25.35,-13.82 44.83,-32.26 58.02,-55.3 13.41,-22.83 20.11,-47.55 20.11,-74.16 0,-38.54 -14.87,-71.43 -44.2,-98.87 -29.53,-27.44 -72.27,-40.85 -128.41,-40.43l-231.26 0 0 -135.11z"></path> <polygon id="_7" class="fil2" points="5880.06,9816.98 5880.06,8902.61 6475.39,8902.61 6475.39,9041.28 6045.75,9041.28 6045.75,9286.79 6443.55,9286.79 6443.55,9423.58 6045.75,9423.58 6045.75,9678.31 6477.91,9678.31 6477.91,9816.98 "></polygon> <polygon id="_8" class="fil2" points="6861.47,9816.98 6861.47,8902.61 7027.16,8902.61 7027.16,9289.72 7450.73,9289.72 7450.73,8902.61 7616.43,8902.61 7616.43,9816.98 7450.73,9816.98 7450.73,9429.03 7027.16,9429.03 7027.16,9816.98 "></polygon> <path id="_9" class="fil2" d="M7866.75 9816.98l-177.43 0 322.81 -914.37 203.82 0 322.18 914.37 -176.8 0 -244.25 -726.68 -7.33 0 -243 726.68zm6.08 -358.42l481.8 0 0 132.6 -481.8 0 0 -132.6z"></path> <path id="_10" class="fil2" d="M8638.05 8902.61l163.39 0 0 298.29c-0.42,58.03 14.25,98.46 44.41,121.5 30.17,22.83 75.41,34.36 135.95,34.36 17.6,0 36.66,-0.84 57.4,-2.31 20.74,-1.26 41.69,-3.35 62.84,-5.65 21.37,-2.52 41.48,-5.66 60.75,-9.22 19.27,-3.77 36.45,-7.75 51.53,-12.36l0 134.48c-15.08,4.82 -32.05,9.22 -50.9,13.2 -18.85,3.77 -38.54,6.91 -59.49,9.43 -20.95,2.51 -41.69,4.4 -62.22,5.86 -20.74,1.47 -40.64,2.1 -59.91,2.1 -69.96,0 -130.71,-9.85 -182.03,-29.75 -51.33,-19.9 -90.92,-51.32 -118.99,-94.26 -28.07,-42.95 -42.31,-98.67 -42.73,-167.38l0 -298.29zm548.83 0l163.18 0 0 914.37 -163.18 0 0 -914.37z"></path> <polygon id="_11" class="fil2" points="9482.46,8902.61 9648.15,8902.61 9648.15,9525.39 9656.32,9525.39 10086.38,8902.61 10234.9,8902.61 10234.9,9816.98 10069.2,9816.98 10069.2,9193.99 10060.62,9193.99 9630.35,9816.98 9482.46,9816.98 "></polygon> <polygon id="_12" class="fil2" points="10367.51,9816.98 10367.51,8902.61 10533.2,8902.61 10533.2,9289.72 10956.77,9289.72 10956.77,8902.61 11122.47,8902.61 11122.47,9816.98 10956.77,9816.98 10956.77,9429.03 10533.2,9429.03 10533.2,9816.98 "></polygon> <path id="_13" class="fil2" d="M11372.79 9816.98l-177.43 0 322.81 -914.37 203.82 0 322.18 914.37 -176.8 0 -244.25 -726.68 -7.33 0 -243 726.68zm6.08 -358.42l481.8 0 0 132.6 -481.8 0 0 -132.6z"></path> <polygon id="_14" class="fil2" points="12117.07,9816.98 12117.07,8902.61 12712.4,8902.61 12712.4,9041.28 12282.76,9041.28 12282.76,9286.79 12680.56,9286.79 12680.56,9423.58 12282.76,9423.58 12282.76,9678.31 12714.92,9678.31 12714.92,9816.98 "></polygon> <polygon id="_15" class="fil2" points="12793.47,9041.28 12793.47,8902.61 13522.46,8902.61 13522.46,9041.28 13240.29,9041.28 13240.29,9816.98 13076.48,9816.98 13076.48,9041.28 "></polygon> <path id="_16" class="fil2" d="M13971.79 9829.34c-80.23,0 -151.87,-18.64 -215.14,-55.93 -63.26,-37.29 -112.9,-90.92 -149.14,-160.88 -36.24,-69.97 -54.26,-153.97 -54.26,-252.21 0,-98.46 18.23,-182.88 54.88,-253.05 36.66,-70.18 86.52,-124.01 149.78,-161.09 63.26,-37.29 134.49,-55.93 213.88,-55.93 50.27,0 97.41,7.12 141.4,21.57 43.99,14.25 83.16,35.2 117.51,62.85 34.36,27.65 62.64,61.37 84.42,101.18 22,40.01 36.45,85.25 43.37,135.95l-166.96 0c-4.61,-27.86 -13.2,-52.37 -26.18,-73.53 -12.78,-21.37 -28.7,-39.38 -47.76,-54.46 -19.07,-14.88 -40.64,-26.19 -64.73,-33.73 -24.09,-7.54 -50.07,-11.31 -77.93,-11.31 -50.06,0 -94.26,12.36 -132.6,37.08 -38.54,24.92 -68.5,61.16 -90.28,109.34 -21.58,47.97 -32.47,106.42 -32.47,175.13 0,69.54 10.89,128.2 32.89,175.96 21.78,47.55 51.95,83.58 90.07,107.88 38.34,24.3 82.12,36.66 131.76,36.66 27.44,0 53,-3.77 76.67,-10.89 23.67,-7.13 45.25,-18.02 64.73,-32.47 19.48,-14.46 35.61,-32.05 48.6,-52.79 12.78,-20.74 21.99,-44.41 27.23,-71.43l166.96 0c-6.29,43.78 -19.49,84.84 -40.22,122.96 -20.74,38.33 -47.76,71.85 -81.07,100.76 -33.31,28.7 -72.27,51.32 -116.89,67.66 -44.62,16.55 -94.06,24.72 -148.52,24.72z"></path> <path id="_17" class="fil2" d="M15139 9816.98l-165.69 0 0 -775.7 -151.04 0c-41.26,-0.42 -75.2,5.45 -101.38,17.81 -26.4,12.15 -46.09,29.95 -58.66,53 -12.78,23.25 -19.27,50.9 -19.69,83.16 0.42,32.26 6.91,59.7 19.27,81.9 12.57,22.42 32.05,39.18 58.45,50.7 26.39,11.52 59.91,17.18 100.97,17.18l222.04 0 0 136.78 -244.88 0c-69.96,0 -129.04,-11.52 -177.43,-34.98 -48.18,-23.25 -84.63,-56.35 -109.55,-99.29 -24.72,-42.94 -37.08,-93.85 -37.08,-152.29 0,-58.03 12.36,-109.14 36.87,-153.13 24.51,-43.99 60.75,-78.14 108.72,-102.85 47.76,-24.51 106.62,-36.66 176.59,-36.66l342.49 0 0 914.37zm-471.95 -414.77l180.99 0 -222.68 414.77 -184.13 0 225.82 -414.77z"></path> <path id="_18" class="fil2" d="M15932.51 9829.34c-80.23,0 -151.87,-18.64 -215.14,-55.93 -63.26,-37.29 -112.9,-90.92 -149.14,-160.88 -36.24,-69.97 -54.26,-153.97 -54.26,-252.21 0,-98.46 18.23,-182.88 54.88,-253.05 36.66,-70.18 86.52,-124.01 149.78,-161.09 63.26,-37.29 134.49,-55.93 213.88,-55.93 50.27,0 97.41,7.12 141.4,21.57 43.99,14.25 83.16,35.2 117.51,62.85 34.36,27.65 62.64,61.37 84.42,101.18 22,40.01 36.45,85.25 43.37,135.95l-166.96 0c-4.61,-27.86 -13.2,-52.37 -26.18,-73.53 -12.78,-21.37 -28.7,-39.38 -47.76,-54.46 -19.07,-14.88 -40.64,-26.19 -64.73,-33.73 -24.09,-7.54 -50.07,-11.31 -77.93,-11.31 -50.06,0 -94.26,12.36 -132.6,37.08 -38.54,24.92 -68.5,61.16 -90.28,109.34 -21.58,47.97 -32.47,106.42 -32.47,175.13 0,69.54 10.89,128.2 32.89,175.96 21.78,47.55 51.95,83.58 90.07,107.88 38.34,24.3 82.12,36.66 131.76,36.66 27.44,0 53,-3.77 76.67,-10.89 23.67,-7.13 45.25,-18.02 64.73,-32.47 19.48,-14.46 35.61,-32.05 48.6,-52.79 12.78,-20.74 21.99,-44.41 27.23,-71.43l166.96 0c-6.29,43.78 -19.49,84.84 -40.22,122.96 -20.74,38.33 -47.76,71.85 -81.07,100.76 -33.31,28.7 -72.27,51.32 -116.89,67.66 -44.62,16.55 -94.06,24.72 -148.52,24.72z"></path> <path id="_19" class="fil2" d="M17009.02 9829.34c-64.31,0 -121.29,-11.1 -171.35,-32.89 -49.86,-21.99 -89.24,-52.58 -117.94,-91.75 -28.91,-39.38 -43.99,-84.63 -45.25,-136.37l166.96 0c1.25,25.14 9.42,46.71 24.3,64.94 14.87,18.01 34.77,32.26 59.7,42.31 25.14,10.06 52.79,14.88 83.58,14.88 32.68,0 61.59,-5.66 86.72,-17.39 25.35,-11.73 45.04,-27.65 59.29,-47.97 14.24,-20.11 21.57,-43.57 21.57,-70.18 0,-27.86 -7.33,-52.37 -21.78,-73.73 -14.67,-21.16 -35.61,-37.71 -63.06,-49.65 -27.23,-11.73 -60.33,-17.81 -98.66,-17.81l-81.7 0 0 -127.57 81.7 0c31,0 58.65,-5.65 82.74,-16.55 24.09,-11.1 42.95,-26.6 56.56,-46.29 13.41,-19.9 20.11,-43.15 20.11,-69.76 0,-25.76 -5.65,-48.18 -17.38,-67.45 -11.73,-19.27 -28.07,-34.14 -49.44,-44.83 -21.37,-10.68 -46.3,-15.92 -74.78,-15.92 -27.87,0 -53.84,5.03 -77.72,14.87 -23.88,10.06 -43.15,24.3 -57.61,42.74 -14.66,18.43 -22.2,40.43 -23.04,66.19l-158.99 0c0.83,-51.11 15.5,-95.94 43.78,-134.9 28.49,-38.96 66.61,-69.34 114.58,-91.12 47.76,-22 101.39,-32.89 160.67,-32.89 60.75,0 113.54,11.31 158.79,34.14 45.24,22.63 80.23,53.21 104.94,91.75 24.72,38.34 37.08,80.65 37.08,126.95 0,51.53 -15.08,94.68 -45.45,129.46 -30.17,34.77 -70.18,57.81 -119.62,68.7l0 6.92c63.89,9.01 112.7,32.68 147.06,71.22 34.14,38.33 51.11,86.31 51.11,143.49 0,51.12 -14.45,96.99 -43.57,137.21 -28.91,40.22 -68.92,71.85 -119.61,94.89 -50.7,22.84 -108.93,34.36 -174.29,34.36z"></path> <path id="_20" class="fil2" d="M17579.85 9816.98l-177.43 0 322.81 -914.37 203.82 0 322.18 914.37 -176.8 0 -244.25 -726.68 -7.33 0 -243 726.68zm6.08 -358.42l481.8 0 0 132.6 -481.8 0 0 -132.6z"></path> <path id="_21" class="fil2" d="M18324.13 9816.98l0 -914.37 588.63 0 0 138.67 -422.94 0 0 214.72 176.17 0c70.39,0 130.51,11.31 180.57,34.14 49.86,22.63 88.19,54.68 115.22,95.94 27.02,41.48 40.64,90.08 40.64,146.22 0,55.93 -13.62,105.37 -40.64,148.1 -27.03,42.73 -65.36,76.25 -115.22,100.34 -50.06,24.09 -110.18,36.24 -180.57,36.24l-341.86 0zm165.69 -136.16l176.17 0c37.29,0 68.5,-7.12 93.85,-20.95 25.56,-13.82 44.83,-32.26 58.44,-55.3 13.41,-22.83 20.32,-47.55 20.32,-74.16 0,-38.54 -14.87,-71.43 -44.61,-98.87 -29.75,-27.44 -72.27,-40.85 -128,-40.43l-176.17 0 0 289.71z"></path> <path id="_22" class="fil2" d="M19497.62 9829.34c-79.81,0 -151.45,-18.64 -215.13,-55.93 -63.68,-37.29 -113.75,-90.92 -150.41,-160.88 -36.65,-69.97 -54.88,-153.97 -54.88,-252.21 0,-98.46 18.23,-182.88 54.88,-253.05 36.66,-70.18 86.73,-124.01 150.41,-161.09 63.68,-37.29 135.32,-55.93 215.13,-55.93 80.23,0 151.67,18.64 214.72,55.93 63.05,37.08 112.91,90.91 149.78,161.09 36.86,70.17 55.3,154.59 55.3,253.05 0,98.24 -18.44,182.24 -55.3,252.21 -36.87,69.96 -86.73,123.59 -149.78,160.88 -63.05,37.29 -134.49,55.93 -214.72,55.93zm0 -148.52c49.44,0 93.22,-12.36 131.35,-36.87 37.91,-24.51 67.87,-60.75 89.65,-108.3 21.58,-47.76 32.47,-106.2 32.47,-175.33 0,-69.55 -10.89,-128.2 -32.47,-176.17 -21.78,-47.77 -51.74,-84 -89.65,-108.51 -38.13,-24.51 -81.91,-36.87 -131.35,-36.87 -49.43,0 -93.42,12.36 -131.76,36.87 -38.12,24.51 -68.08,60.74 -89.86,108.51 -21.58,47.97 -32.47,106.62 -32.47,176.17 0,69.13 10.89,127.57 32.47,175.33 21.78,47.55 51.74,83.79 89.86,108.3 38.34,24.51 82.33,36.87 131.76,36.87z"></path> <polygon id="_23" class="fil2" points="19947.37,9041.28 19947.37,8902.61 20676.36,8902.61 20676.36,9041.28 20394.19,9041.28 20394.19,9816.98 20230.38,9816.98 20230.38,9041.28 "></polygon> <path id="_24" class="fil2" d="M20879.55 9256l231.26 0c70.39,0 130.72,11.31 180.78,34.14 50.07,22.63 88.61,54.68 115.64,95.94 27.02,41.48 40.42,90.08 40.01,146.22 0.41,55.93 -12.99,105.37 -40.01,148.1 -27.03,42.73 -65.57,76.25 -115.64,100.34 -50.06,24.09 -110.39,36.24 -180.78,36.24l-341.86 0 0 -914.37 165.69 0 0 778.21 176.17 0c37.71,0 69.13,-7.12 94.48,-20.95 25.35,-13.82 44.83,-32.26 58.02,-55.3 13.41,-22.83 20.11,-47.55 20.11,-74.16 0,-38.54 -14.87,-71.43 -44.2,-98.87 -29.53,-27.44 -72.27,-40.85 -128.41,-40.43l-231.26 0 0 -135.11zm814.24 -353.39l0 914.37 -165.7 0 0 -914.37 165.7 0z"></path> <path id="_25" class="fil2" d="M22488.76 9829.34c-79.81,0 -151.45,-18.64 -215.13,-55.93 -63.68,-37.29 -113.75,-90.92 -150.41,-160.88 -36.65,-69.97 -54.88,-153.97 -54.88,-252.21 0,-98.46 18.23,-182.88 54.88,-253.05 36.66,-70.18 86.73,-124.01 150.41,-161.09 63.68,-37.29 135.32,-55.93 215.13,-55.93 80.23,0 151.67,18.64 214.72,55.93 63.05,37.08 112.91,90.91 149.78,161.09 36.86,70.17 55.3,154.59 55.3,253.05 0,98.24 -18.44,182.24 -55.3,252.21 -36.87,69.96 -86.73,123.59 -149.78,160.88 -63.05,37.29 -134.49,55.93 -214.72,55.93zm0 -148.52c49.44,0 93.22,-12.36 131.35,-36.87 37.91,-24.51 67.87,-60.75 89.65,-108.3 21.58,-47.76 32.47,-106.2 32.47,-175.33 0,-69.55 -10.89,-128.2 -32.47,-176.17 -21.78,-47.77 -51.74,-84 -89.65,-108.51 -38.13,-24.51 -81.91,-36.87 -131.35,-36.87 -49.43,0 -93.42,12.36 -131.76,36.87 -38.12,24.51 -68.08,60.74 -89.86,108.51 -21.58,47.97 -32.47,106.62 -32.47,176.17 0,69.13 10.89,127.57 32.47,175.33 21.78,47.55 51.74,83.79 89.86,108.3 38.34,24.51 82.33,36.87 131.76,36.87z"></path> <path id="_26" class="fil2" d="M23678.81 9829.34c-80.23,0 -151.87,-18.64 -215.14,-55.93 -63.26,-37.29 -112.9,-90.92 -149.14,-160.88 -36.24,-69.97 -54.26,-153.97 -54.26,-252.21 0,-98.46 18.23,-182.88 54.88,-253.05 36.66,-70.18 86.52,-124.01 149.78,-161.09 63.26,-37.29 134.49,-55.93 213.88,-55.93 50.27,0 97.41,7.12 141.4,21.57 43.99,14.25 83.16,35.2 117.51,62.85 34.36,27.65 62.64,61.37 84.42,101.18 22,40.01 36.45,85.25 43.37,135.95l-166.96 0c-4.61,-27.86 -13.2,-52.37 -26.18,-73.53 -12.78,-21.37 -28.7,-39.38 -47.76,-54.46 -19.07,-14.88 -40.64,-26.19 -64.73,-33.73 -24.09,-7.54 -50.07,-11.31 -77.93,-11.31 -50.06,0 -94.26,12.36 -132.6,37.08 -38.54,24.92 -68.5,61.16 -90.28,109.34 -21.58,47.97 -32.47,106.42 -32.47,175.13 0,69.54 10.89,128.2 32.89,175.96 21.78,47.55 51.95,83.58 90.07,107.88 38.34,24.3 82.12,36.66 131.76,36.66 27.44,0 53,-3.77 76.67,-10.89 23.67,-7.13 45.25,-18.02 64.73,-32.47 19.48,-14.46 35.61,-32.05 48.6,-52.79 12.78,-20.74 21.99,-44.41 27.23,-71.43l166.96 0c-6.29,43.78 -19.49,84.84 -40.22,122.96 -20.74,38.33 -47.76,71.85 -81.07,100.76 -33.31,28.7 -72.27,51.32 -116.89,67.66 -44.62,16.55 -94.06,24.72 -148.52,24.72z"></path> <polygon id="_27" class="fil2" points="24170.88,9816.98 24170.88,8902.61 24766.21,8902.61 24766.21,9041.28 24336.57,9041.28 24336.57,9286.79 24734.37,9286.79 24734.37,9423.58 24336.57,9423.58 24336.57,9678.31 24768.73,9678.31 24768.73,9816.98 "></polygon> <path id="_28" class="fil2" d="M24887.09 9816.98l0 -914.37 588.63 0 0 138.67 -422.94 0 0 214.72 176.17 0c70.39,0 130.51,11.31 180.57,34.14 49.86,22.63 88.19,54.68 115.22,95.94 27.02,41.48 40.64,90.08 40.64,146.22 0,55.93 -13.62,105.37 -40.64,148.1 -27.03,42.73 -65.36,76.25 -115.22,100.34 -50.06,24.09 -110.18,36.24 -180.57,36.24l-341.86 0zm165.69 -136.16l176.17 0c37.29,0 68.5,-7.12 93.85,-20.95 25.56,-13.82 44.83,-32.26 58.44,-55.3 13.41,-22.83 20.32,-47.55 20.32,-74.16 0,-38.54 -14.87,-71.43 -44.61,-98.87 -29.75,-27.44 -72.27,-40.85 -128,-40.43l-176.17 0 0 289.71z"></path> <polygon id="_29" class="fil2" points="25662.79,9816.98 25662.79,8902.61 26258.12,8902.61 26258.12,9041.28 25828.48,9041.28 25828.48,9286.79 26226.28,9286.79 26226.28,9423.58 25828.48,9423.58 25828.48,9678.31 26260.64,9678.31 26260.64,9816.98 "></polygon> <path id="_30" class="fil2" d="M26420.26 9526.01l-11.73 -623.4 175.54 0 -11.73 623.4 -152.08 0zm76.04 301.44c-29.11,0 -53,-9.21 -72.06,-27.44 -19.06,-18.01 -28.49,-41.26 -28.49,-69.54 0,-28.7 9.43,-52.16 28.49,-70.39 19.06,-18.01 42.95,-27.23 72.06,-27.23 29.54,0 53.63,9.22 72.48,27.23 18.86,18.23 28.07,41.69 28.07,70.39 0,28.28 -9.21,51.53 -28.07,69.54 -18.85,18.23 -42.94,27.44 -72.48,27.44z"></path> </g> </svg> 